<svg width="252" height="94" viewBox="0 0 252 94" fill="none" xmlns="http://www.w3.org/2000/svg">
<g clip-path="url(#clip0_17107_3428)">
<path d="M66.7996 0L64.8552 3.36543L60.4053 11.1059L59.7696 12.2277L60.4053 13.3495L91.2177 66.7103H62.9107H61.6019L60.9662 67.8321L56.5164 75.61L54.5719 78.938H58.4235L108.531 78.9754L112.383 78.938L110.438 75.5726L68.7441 3.36543L66.7996 0ZM58.5356 14.3218L56.5912 17.6872L14.8972 89.9318L12.9528 93.2598H16.8417H25.7788H27.0876L27.7233 92.138L58.5356 38.7772L72.7079 63.2701L73.3061 64.3919H74.6149H83.552H87.441L85.4965 61.0639L60.4801 17.6872L58.5356 14.3218ZM58.3861 43.1897L56.479 46.5551L31.4252 89.8944L29.4808 93.2598H33.3697H116.795H120.647L118.702 89.8944L114.252 82.1539L113.579 81.0321H112.308H50.683L64.8178 56.5392L65.4535 55.4174L64.8178 54.2956L60.3305 46.5551L58.3861 43.1897Z" fill="white"/>
<path d="M134.709 93.2598L151.146 0H162.803L148.464 81.6023H163.619L161.521 93.2598H134.709ZM168.515 93.2598L184.952 0H211.765L210.133 9.32598H194.978L189.615 39.6354H202.439L200.807 48.9614H187.983L182.271 81.6023H197.426L195.328 93.2598H168.515ZM199.99 93.2598L219.925 46.2802L217.593 0H229.251L228.202 32.6409H229.367L239.743 0H251.4L233.331 43.1327L236.129 93.2598H224.471V60.2692H223.305L211.648 93.2598H199.99Z" fill="white"/>
</g>
<defs>
<clipPath id="clip0_17107_3428">
<rect width="251.4" height="93.2598" fill="white"/>
</clipPath>
</defs>
</svg>
