<svg width="242" height="65" viewBox="0 0 242 65" fill="none" xmlns="http://www.w3.org/2000/svg">
<g clip-path="url(#clip0_17107_3435)">
<path d="M55.4749 54.2768C60.9506 48.5079 64.32 40.7221 64.32 32.16C64.32 23.3943 60.7907 15.4396 55.0833 9.63267C55.0173 9.5622 54.958 9.48837 54.8898 9.42013C54.8361 9.36644 54.7746 9.32169 54.7209 9.26912C48.9117 3.54164 40.9436 0 32.16 0C23.3753 0 15.4038 3.54388 9.59464 9.27359C9.54206 9.32393 9.48278 9.36756 9.43132 9.42013C9.36532 9.48613 9.30827 9.55772 9.24562 9.62484C3.53269 15.4329 0 23.3898 0 32.16C0 40.7232 3.3716 48.509 8.84738 54.2779C9.02301 54.4927 9.21095 54.7008 9.40895 54.8999C9.5622 55.0542 9.73 55.193 9.89556 55.335C15.679 60.8925 23.524 64.32 32.1589 64.32C40.7926 64.32 48.6354 60.8936 54.4177 55.3395C54.5844 55.1963 54.7544 55.0554 54.9088 54.8999C55.1102 54.7008 55.2981 54.4927 55.4749 54.2768ZM57.5511 45.7449C57.1573 41.6931 55.3842 36.9735 52.4198 32.1309C53.9624 29.605 55.2153 27.0791 56.1035 24.627C56.8866 22.4636 57.3631 20.4343 57.5455 18.5673C59.7246 22.6191 60.9641 27.248 60.9641 32.1611C60.9641 37.0697 59.7268 41.6942 57.5511 45.7449ZM52.3706 52.6581C51.2072 53.7286 49.555 54.2868 47.4273 54.2868C43.9517 54.2868 39.6974 52.8561 35.2821 50.3514C38.053 48.3793 40.8038 46.0603 43.427 43.436C46.0413 40.8217 48.358 38.0575 50.347 35.2553C51.4119 37.1402 52.3102 39.0128 52.9702 40.8351C54.8272 45.9596 54.7075 50.1255 52.6794 52.3482C52.5764 52.4534 52.4746 52.5563 52.3706 52.6581ZM11.9472 52.6559C11.8454 52.5552 11.7447 52.4545 11.6451 52.3527C9.61478 50.1311 9.49396 45.963 11.3509 40.8362C12.0109 39.014 12.9081 37.1402 13.973 35.2564C15.962 38.0586 18.2787 40.8228 20.893 43.4371C23.5173 46.0614 26.2681 48.3804 29.0379 50.3526C24.6226 52.8561 20.3683 54.288 16.8927 54.288C14.7628 54.2868 13.1094 53.7286 11.9472 52.6559ZM23.2656 41.0644C20.412 38.2108 17.9207 35.1859 15.8826 32.1432C17.9174 29.1117 20.4019 26.098 23.2455 23.2556C26.098 20.403 29.1341 17.9185 32.16 15.8882C35.1871 17.9185 38.2231 20.4041 41.0756 23.2556C43.9181 26.0992 46.4037 29.1117 48.4374 32.1432C46.3993 35.1859 43.908 38.2108 41.0544 41.0644C38.2074 43.9103 35.1792 46.3903 32.16 48.4184C29.1408 46.3903 26.1126 43.9103 23.2656 41.0644ZM11.7671 11.8386C11.795 11.8107 11.823 11.7827 11.851 11.7548C13.0177 10.6148 14.718 10.032 16.914 10.032C20.384 10.032 24.6293 11.4572 29.0367 13.954C26.2614 15.9284 23.5039 18.2519 20.874 20.8818C18.2261 23.5296 15.9172 26.2714 13.9674 29.011C12.9159 27.144 12.0277 25.287 11.3733 23.4815C9.48166 18.2642 9.62932 14.0278 11.7671 11.8386ZM52.4668 11.7536C52.4959 11.7827 52.5272 11.8129 52.5563 11.8431C54.6907 14.0323 54.8383 18.2675 52.9489 23.4838C52.2945 25.2893 51.4074 27.1451 50.3548 29.0132C48.4061 26.2737 46.0961 23.5319 43.4483 20.884C40.8183 18.2541 38.062 15.9307 35.2855 13.9562C39.6919 11.4605 43.9371 10.0343 47.4072 10.0343C49.602 10.0332 51.3001 10.6148 52.4668 11.7536ZM45.7404 6.7667C41.6383 7.16158 36.9322 8.97044 32.16 11.8912C27.389 8.97044 22.6817 7.16158 18.5796 6.7667C22.628 4.59317 27.2514 3.35594 32.16 3.35594C37.0686 3.35594 41.692 4.59205 45.7404 6.7667ZM6.77453 18.5651C6.95687 20.4321 7.4323 22.4624 8.21647 24.6248C9.10467 27.0769 10.3587 29.6039 11.9002 32.1298C8.93688 36.9724 7.1627 41.692 6.76894 45.7449C4.59317 41.6942 3.35594 37.0709 3.35594 32.16C3.35594 27.2458 4.5954 22.6168 6.77453 18.5651ZM18.5751 57.5511C22.6795 57.1528 27.3878 55.3406 32.16 52.4165C36.9322 55.3406 41.6405 57.1517 45.7449 57.5511C41.6954 59.7257 37.0697 60.9641 32.16 60.9641C27.2503 60.9641 22.6258 59.7268 18.5751 57.5511Z" fill="white"/>
<path d="M123.061 56.8692L119.565 48.5937H96.0947L92.599 56.8692H80.3999L102.587 6.93126H113.074L135.26 56.8692H123.061ZM100.09 39.2482H115.642L107.866 20.8425L100.09 39.2482ZM151.597 6.43188V56.8692H140.325V6.43188H151.597ZM177.279 19.1304C185.698 19.1304 197.469 25.4796 195.114 42.2445H169.218C170.502 46.0968 173.855 48.0944 178.35 48.0944C182.915 48.0944 184.342 47.0956 186.91 46.0255L193.117 52.018C189.835 55.2283 185.412 57.5826 177.921 57.5826C168.719 57.5826 157.732 51.2333 157.732 38.4635C157.732 25.4796 168.861 19.1304 177.279 19.1304ZM177.279 28.7613C174.069 28.7613 170.787 30.6161 169.361 34.3258H185.127C183.985 30.6161 180.49 28.7613 177.279 28.7613ZM228.287 56.8692L220.583 46.0255L212.949 56.8692H200.037L214.091 37.8214L201.464 19.7724H214.233L220.583 29.6887L227.003 19.7724H239.773L227.075 37.8214L241.2 56.8692H228.287Z" fill="white"/>
</g>
<defs>
<clipPath id="clip0_17107_3435">
<rect width="241.2" height="64.32" fill="white"/>
</clipPath>
</defs>
</svg>
