<svg width="252" height="71" viewBox="0 0 252 71" fill="none" xmlns="http://www.w3.org/2000/svg">
<path d="M57.2066 35.1038H71.85V33.9184H57.2849L53.4634 26.3573L50.5914 18.0791L56.6507 7.59266L55.6243 7L49.6183 17.4035L39.766 16.8025L29.7489 14.8349L25.2257 7L24.1993 7.59266L28.6821 15.3565C27.8156 16.7895 24.0594 22.9685 22.6015 24.9646C21.1151 26.9974 16.1036 32.7639 15.0972 33.9184H9V35.1038H15.0214L21.2787 46.1568L26.0827 58.1747L24.1993 61.4295L25.2257 62.0222L27.0902 58.7922L40.425 57.8819L53.7586 58.791L55.6231 62.021L56.6496 61.4284L48.6404 47.5602L52.4535 41.1145L57.2066 35.1038ZM52.3611 26.7829L52.3741 26.8208L55.9526 33.9184H48.9592L47.2275 30.2523L45.9237 26.1677L49.8103 19.4363L52.3611 26.7829ZM42.8395 32.662L43.3527 33.9184H41.4562L42.6344 31.8773L42.8395 32.662ZM37.8541 35.9513L37.233 35.1038H39.3985L38.3673 36.89L37.8541 35.9513ZM40.425 35.6964L41.2547 37.1318L40.2887 37.1686L39.4981 37.3037L40.425 35.6964ZM39.3985 33.9184H34.272C34.8256 33.3127 35.4739 32.5897 35.7572 32.2282C36.0844 31.811 36.741 30.8343 37.2092 30.1266L39.3985 33.9184ZM38.5083 30.0069L39.8786 30.4277L41.8936 30.7833L40.425 33.3258L38.5083 30.0069ZM35.7643 35.1038L36.8311 36.5546L37.6703 38.0955L36.632 39.8995L35.4917 37.4317L34.0018 35.1038H35.7643ZM38.7276 38.6372L40.3728 38.3515L41.9244 38.2922L43.1595 40.4258L40.3894 40.2741L37.6514 40.4981L38.7276 38.6372ZM42.2385 36.4669L41.4515 35.1038H43.0789L42.6558 35.6893L42.2385 36.4669ZM42.5254 29.6869L40.1879 29.2827L37.636 28.4992L35.7323 25.2017L39.7932 26.1499L39.8312 26.1582L44.3069 26.598L42.5254 29.6869ZM36.5455 28.9757C36.1365 29.5992 35.2084 31.0049 34.8232 31.4945C34.4178 32.0125 33.1306 33.4076 32.66 33.9161H28.2163C29.2617 32.7308 30.9425 30.807 31.5731 29.9654C32.2452 29.0681 33.7244 26.7295 34.5162 25.4612L36.5455 28.9757ZM32.5948 35.1038L34.4487 38.0018L35.9054 41.1548L33.2776 45.7052L30.9864 40.2599L27.9377 35.1038H32.5948ZM36.9295 41.751L40.4048 41.4677L43.8671 41.6573L46.8624 46.8455L40.5898 46.1971L34.2412 46.4069L36.9295 41.751ZM42.9367 37.6747L43.6419 36.3507L44.5404 35.1038H47.3852L45.6712 37.3393L44.218 39.8924L42.9367 37.6747ZM44.634 33.9184L43.975 32.3183L43.4689 30.4218L45.1283 27.5521L46.1287 30.6849L47.6554 33.9184H44.634ZM39.6142 17.9819L48.9557 18.5509L44.96 25.4707L40.0267 24.9859L34.9216 23.7935L30.5359 16.1968L39.6142 17.9819ZM23.558 25.6639C24.9176 23.8042 28.1001 18.6007 29.3589 16.5287L33.8465 24.302C33.2539 25.2633 31.374 28.2586 30.626 29.2578C29.8544 30.2878 27.3237 33.1432 26.6339 33.9184H16.669C18.4007 31.9224 22.2459 27.4585 23.558 25.6639ZM22.3644 45.6803L22.349 45.6436L16.3833 35.1038H26.5568L29.9208 40.7933L32.5284 46.9936L26.8271 56.8685L22.3644 45.6803ZM40.4653 56.6978H40.425L27.805 57.5583L33.5431 47.6195L40.5483 47.3824L47.5938 48.1102L53.0462 57.5524L40.4653 56.6978ZM51.4745 40.4377L47.9612 46.3773L44.9019 41.0789L46.6621 37.9971L48.8798 35.1038H55.6954L51.4994 40.408L51.4745 40.4377Z" fill="white"/>
<path d="M130.57 58.863L125.75 47.8167H100.712L95.8914 58.863H90L110.888 12H115.507L136.461 58.863H130.57ZM102.787 43.1304H123.674L113.231 19.2972L102.787 43.1304ZM147.374 53.6411H168.395V58.863H141.817V12H147.374V53.6411ZM180.646 53.6411H202.94V58.863H179.308H175.09V12H180.646H202.337V17.2219H180.646V32.7536H197.517V37.8416H180.646V53.6411ZM247.125 58.863H240.497L227.041 39.5822L213.584 58.863H206.957L223.693 34.829L207.76 12H214.388L226.974 30.0757L239.56 12H246.188L230.321 34.829L247.125 58.863Z" fill="white"/>
</svg>
